# xmcd
#
# Track frame offsets: 
#        150
#        17411
#        35229
#        55538
#        74292
#        100481
#        117171
#        139326
#        169436
#        187620
#
# Disc length: 2722 seconds
#
# Revision: 0
# Processed by: cddbd v1.5.2PL0 Copyright (c) Steve Scherf et al.
# Submitted via: ExactAudioCopy v0.99pb5
#
DISCID=860aa00a
DTITLE=Wojtek Teck Wieckowski - Slyde Guitar
DYEAR=2008
DGENRE=Blues
TTITLE0=Gimme
TTITLE1=Conscience stricken
TTITLE2=Lookin for the sun
TTITLE3=I need love
TTITLE4=Blues gonna catch ya
TTITLE5=Cowboy boots
TTITLE6=Where have you been
TTITLE7=Nights are longer
TTITLE8=Somewhere in Texas
TTITLE9=When my slide begins to cry
EXTD=
EXTT0=
EXTT1=
EXTT2=
EXTT3=
EXTT4=
EXTT5=
EXTT6=
EXTT7=
EXTT8=
EXTT9=
PLAYORDER=
